# xmcd
#
# Track frame offsets:
#	150
#	9225
#	21825
#	31350
#	42225
#	60525
#	75900
#	82350
#	92775
#	111300
#	123675
#	132675
#	140700
#	168225
#
# Disc length: 2347 seconds
#
# Revision: 0
# Processed by: cddbd v1.5.2PL0 Copyright (c) Steve Scherf et al.
# Submitted via: EasyCDDAExtractor 8.2.3.1
#
DISCID=be09290e
DTITLE=Doc Watson - Home Again!
DYEAR=1966
DGENRE=Country
TTITLE0=Down In The Valley To Pray
TTITLE1=Georgie
TTITLE2=The Old Man Below
TTITLE3=Katie Morey
TTITLE4=F F V  
TTITLE5=Winter's Night
TTITLE6=Dill Pickle Rag
TTITLE7=Sing Song Kitty
TTITLE8=Froggie Went A-Courtin'
TTITLE9=Pretty Saro
TTITLE10=Childhood Play
TTITLE11=Rain Crow Bill
TTITLE12=Matty Groves
TTITLE13=Victory Rag
EXTD=
EXTT0=
EXTT1=
EXTT2=
EXTT3=
EXTT4=
EXTT5=
EXTT6=
EXTT7=
EXTT8=
EXTT9=
EXTT10=
EXTT11=
EXTT12=
EXTT13=
PLAYORDER=
